<svg width="299" height="276" viewBox="0 0 299 276" fill="none" xmlns="http://www.w3.org/2000/svg">
<path d="M18 108.5L113.5 25.5L279 108.5V265H29L18 108.5Z" fill="#003141"/>
<rect x="103.474" y="0.0113525" width="36.7931" height="154.287" rx="18.3965" transform="rotate(42.0332 103.474 0.0113525)" fill="#008CB8"/>
<rect x="298.212" y="100.186" width="36.7931" height="220.88" rx="18.3965" transform="rotate(116.393 298.212 100.186)" fill="#00C2FF"/>
<path d="M25.5 276C15.2827 276 7 267.717 7 257.5V257.5C7 247.283 15.2827 239 25.5 239L270.5 239C280.717 239 289 247.283 289 257.5V257.5C289 267.717 280.717 276 270.5 276H25.5Z" fill="#008CB8"/>
<path d="M255 111.5C255 101.283 263.283 93 273.5 93V93C283.717 93 292 101.283 292 111.5V257.5C292 267.717 283.717 276 273.5 276V276C263.283 276 255 267.717 255 257.5V111.5Z" fill="#006281"/>
<path d="M7 114.5C7 104.283 15.2827 96 25.5 96V96C35.7173 96 44 104.283 44 114.5V257.5C44 267.717 35.7173 276 25.5 276V276C15.2827 276 7 267.717 7 257.5V114.5Z" fill="#00C2FF"/>
</svg>
